<?xml version="1.0" standalone="no"?>
<!DOCTYPE svg PUBLIC "-//W3C//DTD SVG 20010904//EN"
 "http://www.w3.org/TR/2001/REC-SVG-20010904/DTD/svg10.dtd">
<svg version="1.0" xmlns="http://www.w3.org/2000/svg"
 width="2000.000000pt" height="2000.000000pt" viewBox="0 0 2000.000000 2000.000000"
 preserveAspectRatio="xMidYMid meet">
<metadata>
Created by potrace 1.14, written by Peter Selinger 2001-2017
</metadata>
<g transform="translate(0.000000,2000.000000) scale(0.100000,-0.100000)"
fill="#000000" stroke="none">
<path d="M1116 19674 c-126 -25 -268 -84 -376 -157 -66 -45 -196 -173 -246
-243 -60 -83 -130 -233 -156 -334 l-23 -85 0 -8855 0 -8855 23 -85 c24 -92 92
-242 144 -318 46 -68 173 -197 244 -248 83 -60 233 -130 334 -156 l85 -23
8855 0 8855 0 85 23 c101 26 251 96 334 156 71 51 198 180 244 248 52 76 120
226 144 318 l23 85 0 8855 0 8855 -23 85 c-26 101 -96 251 -156 334 -51 71
-180 198 -248 244 -73 50 -224 119 -313 144 l-80 23 -8840 2 c-7438 1 -8851
-1 -8909 -13z m7144 -5206 c954 -1550 1738 -2817 1741 -2818 3 0 787 1269
1743 2820 l1738 2820 2134 0 2134 0 0 -7290 0 -7290 -2010 0 -2010 0 -2 4186
-3 4185 -1861 -2848 -1860 -2848 -44 0 -44 0 -1850 2828 -1851 2828 -3 -4166
-2 -4165 -1980 0 -1980 0 0 7290 0 7290 2137 -2 2137 -3 1736 -2817z"/>
</g>
</svg>
